# xmcd CD database file
#
# Track frame offsets:
#	150
#	29022
#	55222
#	82790
#	113642
#	148096
#
# Disc length: 2198 seconds
#
# Revision: 1
# Processed by: cddbd v1.5.2PL0 Copyright (c) Steve Scherf et al.
# Submitted via: CDex 1.70beta2
#
DISCID=49089406
DTITLE=Plumstead Radical Club - The Coast Is Clear
DYEAR=2007
DGENRE=Jazz
TTITLE0=The Coast Is Clear
TTITLE1=I Shot The Sherif
TTITLE2=One Way
TTITLE3=Question
TTITLE4=Smoke And Mirrors
TTITLE5=One Way - Natural Self Remix
EXTD=YEAR: 2007
EXTT0=
EXTT1=
EXTT2=
EXTT3=
EXTT4=
EXTT5=
PLAYORDER=
